<?xml version="1.0" standalone="no"?>
<!DOCTYPE svg PUBLIC "-//W3C//DTD SVG 20010904//EN"
 "http://www.w3.org/TR/2001/REC-SVG-20010904/DTD/svg10.dtd">
<svg version="1.0" xmlns="http://www.w3.org/2000/svg"
 width="400.000000pt" height="400.000000pt" viewBox="0 0 400.000000 400.000000"
 preserveAspectRatio="xMidYMid meet">
<metadata>
Created by potrace 1.14, written by Peter Selinger 2001-2017
</metadata>
<g transform="translate(0.000000,400.000000) scale(0.100000,-0.100000)"
fill="#000000" stroke="none">
<path d="M0 3240 l0 -759 33 -9 c28 -7 33 -14 40 -53 11 -57 10 -44 8 -389 -2
-302 -14 -447 -37 -465 -9 -7 -10 -23 -4 -62 5 -29 7 -63 5 -75 -37 -229 -45
-394 -45 -935 l0 -493 2000 0 2000 0 0 389 0 389 -53 6 c-75 9 -127 7 -165 -5
-24 -8 -41 -8 -62 1 -21 9 -70 9 -191 2 -192 -11 -314 -8 -332 6 -6 5 -28 12
-47 14 l-35 3 -2 -74 c-3 -83 -13 -101 -54 -101 -15 0 -32 -6 -36 -13 -11 -17
-63 -50 -70 -44 -2 3 1 15 7 28 19 34 -5 45 -91 42 -63 -2 -75 1 -87 18 -11
16 -11 24 2 51 22 44 20 51 -16 70 -37 18 -139 24 -167 8 -27 -14 -342 -15
-368 -1 -14 7 -24 8 -28 1 -9 -15 -51 -12 -65 5 -17 20 -24 19 -60 -12 -29
-24 -35 -25 -64 -15 -18 7 -40 12 -49 12 -32 0 -28 21 8 36 26 10 35 20 31 30
-3 9 -6 83 -6 165 l0 149 -27 6 c-53 14 -57 2 -59 -175 l-1 -163 -28 -22 -27
-22 43 -13 c24 -7 50 -15 57 -17 6 -2 12 -8 12 -15 0 -7 -16 -9 -50 -4 -42 6
-50 4 -50 -9 0 -20 -10 -20 -39 0 -18 13 -28 14 -47 5 -14 -6 -34 -11 -44 -11
-23 0 -25 -14 -9 -59 8 -23 8 -36 1 -43 -8 -8 -6 -17 4 -33 30 -46 -22 -89
-111 -91 -33 0 -72 -7 -87 -14 -24 -11 -35 -10 -80 8 -29 11 -52 24 -51 29 1
4 -35 9 -79 9 -71 1 -79 -1 -75 -16 3 -13 -3 -19 -23 -24 -20 -3 -29 -12 -32
-28 -4 -32 -53 -38 -63 -9 -8 26 1 41 26 41 19 0 26 14 11 24 -4 2 -34 6 -67
7 -56 3 -60 1 -65 -22 -3 -13 -13 -25 -23 -27 -18 -4 -54 17 -55 33 -2 10
-114 23 -146 17 -10 -2 -15 -10 -13 -17 4 -10 -3 -10 -34 -3 -41 11 -51 32
-27 56 8 8 9 15 3 20 -15 10 -12 75 5 107 13 24 13 28 -2 39 -9 7 -35 19 -58
26 -36 12 -42 12 -53 -4 -8 -11 -23 -17 -38 -14 -31 4 -30 22 2 28 14 3 25 13
25 23 2 15 -3 17 -29 11 -17 -3 -39 -11 -49 -17 -23 -15 -35 -1 -20 23 7 11
12 22 12 25 0 10 -35 5 -63 -10 -21 -11 -34 -11 -57 -3 -30 10 -45 9 -84 -7
-17 -7 -18 -5 -11 26 10 48 10 99 1 131 -7 24 -5 28 18 34 37 9 35 42 -4 57
-22 8 -28 16 -24 29 6 19 -16 67 -39 86 -11 10 -17 9 -26 -1 -8 -11 -6 -18 9
-32 24 -22 26 -53 4 -62 -12 -4 -13 -8 -3 -14 8 -5 14 -38 15 -98 3 -82 1 -90
-16 -96 -11 -4 -20 -14 -20 -24 0 -10 -7 -24 -15 -31 -13 -11 -20 -9 -38 9
-13 11 -29 21 -35 21 -15 0 -31 40 -24 58 3 9 13 11 28 8 14 -4 24 -2 24 4 0
5 -6 10 -14 10 -28 0 -49 49 -42 100 3 25 3 50 -1 53 -13 14 -11 96 3 108 16
14 18 36 4 41 -8 2 -7 36 1 108 7 58 11 129 10 159 -1 29 3 59 9 66 7 9 10
143 10 406 -1 217 -1 417 0 444 0 28 -5 60 -12 73 -9 18 -9 27 0 43 8 12 9 26
4 37 -8 17 -17 156 -16 263 1 119 48 154 91 68 17 -35 23 -67 27 -154 5 -108
12 -199 22 -262 4 -27 10 -33 29 -33 13 0 35 -4 49 -10 14 -5 85 -19 158 -30
148 -23 228 -36 498 -79 271 -44 617 -99 760 -122 69 -11 145 -24 170 -29 25
-5 95 -16 155 -25 148 -23 338 -53 405 -65 30 -5 127 -21 215 -35 88 -14 201
-32 250 -41 50 -8 117 -19 150 -25 112 -18 155 -31 155 -45 0 -18 -32 -34 -68
-34 -16 0 -35 -6 -41 -13 -13 -17 -16 -173 -6 -387 l7 -165 32 -39 31 -38 135
-4 c74 -1 155 -5 180 -7 25 -3 86 -7 135 -11 50 -4 115 -11 145 -16 30 -5 83
-11 118 -14 l62 -6 0 1400 0 1400 -2000 0 -2000 0 0 -760z m1445 -33 c133 -30
224 -88 299 -188 77 -102 62 -126 -100 -161 -92 -20 -124 -22 -453 -20 -465 2
-518 10 -597 88 -29 30 -34 41 -34 82 0 45 23 108 53 145 19 23 55 34 157 48
47 6 105 15 130 19 72 13 476 4 545 -13z m1737 -16 c263 -13 278 -22 278 -183
0 -84 -24 -117 -104 -142 -176 -56 -582 -71 -806 -32 -116 21 -213 52 -234 75
-16 17 -16 22 -2 48 23 43 121 140 179 176 50 32 104 52 157 60 48 8 347 6
532 -2z m-2994 -2418 c-8 -10 -6 -13 6 -13 9 0 16 -7 16 -15 0 -8 7 -15 15
-15 8 0 15 -7 15 -15 0 -8 -9 -15 -20 -15 -20 0 -60 33 -60 49 0 5 -10 11 -21
13 -15 2 -23 11 -25 29 l-2 26 43 -16 c34 -12 41 -18 33 -28z m102 2 c0 -9 -9
-15 -25 -15 -26 0 -34 15 -12 23 23 10 37 7 37 -8z m2465 -4 c5 -9 -31 -41
-47 -41 -5 0 -8 11 -8 25 0 20 5 25 24 25 14 0 27 -4 31 -9z m-297 -23 c12 1
22 -3 22 -8 0 -12 -87 -13 -94 -1 -9 14 6 22 28 14 12 -3 31 -6 44 -5z m-327
-13 c0 -13 -41 -19 -41 -7 0 11 20 22 33 18 5 -1 8 -6 8 -11z m-1903 -97 c4
-29 -1 -32 -53 -28 -37 2 -35 1 -29 27 6 23 25 32 59 30 14 -2 21 -10 23 -29z
m1630 -40 c-3 -7 -11 -13 -18 -13 -7 0 -15 6 -17 13 -3 7 4 12 17 12 13 0 20
-5 18 -12z m1006 -4 c17 -44 -8 -115 -35 -99 -10 7 -12 98 -2 108 11 12 31 7
37 -9z m-2670 -45 c-20 -23 -44 -25 -44 -4 0 8 7 15 16 15 8 0 13 4 9 9 -3 5
3 11 12 13 25 5 28 -10 7 -33z m1696 -19 c0 -5 -7 -10 -15 -10 -8 0 -15 5 -15
10 0 6 7 10 15 10 8 0 15 -4 15 -10z m-50 -30 c0 -5 -4 -10 -10 -10 -5 0 -10
5 -10 10 0 6 5 10 10 10 6 0 10 -4 10 -10z m-1036 -20 c30 -11 33 -25 10 -34
-19 -7 -57 21 -48 35 7 11 7 11 38 -1z m2062 -11 c12 -20 10 -307 -2 -324 -10
-13 -13 -8 -23 28 -13 52 -26 269 -18 291 7 19 33 21 43 5z m-1482 -64 c9 -24
-4 -45 -30 -45 -24 0 -50 33 -39 50 10 16 62 12 69 -5z m254 -107 c3 -25 0
-28 -28 -28 -32 0 -47 18 -36 46 4 10 15 14 33 12 22 -2 29 -9 31 -30z"/>
<path d="M260 2411 c0 -5 5 -13 10 -16 6 -3 10 -2 10 4 0 5 -4 13 -10 16 -5 3
-10 2 -10 -4z"/>
<path d="M1 2258 c2 -132 2 -133 10 -53 15 136 15 178 2 182 -10 4 -13 -26
-12 -129z"/>
<path d="M260 2175 c0 -33 4 -45 13 -42 7 2 12 20 12 42 0 22 -5 40 -12 43 -9
2 -13 -10 -13 -43z"/>
<path d="M387 2152 c-3 -15 -6 -115 -7 -224 l-1 -196 52 -7 c28 -4 54 -3 59 1
4 5 10 105 13 222 l5 212 -23 0 c-13 0 -27 5 -30 10 -3 6 -19 10 -34 10 -23 0
-30 -5 -34 -28z"/>
<path d="M856 2073 c-4 -21 -8 -114 -9 -207 -2 -164 -1 -169 20 -177 30 -11
78 -4 79 12 0 8 3 21 7 29 3 8 8 90 9 183 l3 167 -32 15 c-52 25 -70 20 -77
-22z"/>
<path d="M2704 1785 c-4 -8 -4 -65 -2 -127 5 -117 16 -142 57 -131 17 4 18 15
13 126 -2 67 -9 128 -14 135 -14 17 -47 15 -54 -3z"/>
<path d="M616 1774 c-4 -9 1 -14 14 -14 23 0 27 15 6 23 -8 3 -17 -1 -20 -9z"/>
<path d="M2953 1754 c-3 -9 -3 -63 0 -120 6 -104 15 -130 48 -134 40 -6 41 -4
38 118 -2 64 -7 125 -11 135 -11 22 -66 23 -75 1z"/>
<path d="M274 1675 c-15 -11 -17 -17 -8 -32 16 -25 26 -22 35 9 9 34 -1 42
-27 23z"/>
<path d="M2833 1574 c-7 -19 2 -28 22 -21 19 8 19 23 0 31 -9 3 -18 -1 -22
-10z"/>
<path d="M319 1528 c-1 -2 -3 -22 -4 -44 l-3 -42 41 -6 c39 -5 296 -23 672
-46 89 -5 224 -14 300 -20 208 -16 401 -29 580 -40 88 -6 181 -12 207 -15 45
-5 46 -5 53 25 9 42 40 37 39 -5 l-1 -30 76 -3 c42 -1 101 -4 132 -7 242 -19
525 -36 579 -33 l65 3 -98 33 c-109 36 -126 39 -322 52 -133 9 -340 25 -470
35 -33 3 -121 10 -195 16 -138 10 -241 19 -455 38 -66 6 -219 18 -340 26 -121
9 -267 20 -325 25 -58 6 -163 13 -233 17 -70 3 -130 10 -133 14 -4 8 -162 14
-165 7z"/>
<path d="M276 1372 c-2 -4 -1 -14 3 -21 4 -7 6 -23 3 -37 -5 -29 8 -32 25 -4
8 12 9 21 3 25 -6 3 -10 15 -10 26 0 19 -14 26 -24 11z"/>
<path d="M275 1271 c-3 -5 -1 -13 5 -16 8 -5 6 -15 -5 -32 -16 -23 -16 -25 2
-21 13 2 19 14 21 41 3 34 -9 49 -23 28z"/>
<path d="M1184 1154 c9 -24 -15 -104 -31 -104 -7 0 -13 -4 -13 -10 0 -5 6 -10
14 -10 7 0 21 -11 30 -24 14 -22 14 -29 0 -76 -16 -54 -9 -80 24 -80 11 0 13
9 9 39 -3 26 0 47 10 61 13 19 13 25 -1 53 -14 29 -14 33 0 44 11 8 14 19 9
34 -4 13 -8 37 -9 53 -1 24 -7 32 -25 34 -19 3 -23 0 -17 -14z"/>
<path d="M2476 1124 c-13 -13 -16 -42 -16 -158 0 -154 7 -175 50 -161 19 6 20
14 20 165 0 135 -2 159 -16 164 -21 8 -20 8 -38 -10z"/>
<path d="M873 1043 c-18 -7 -16 -58 1 -72 12 -10 18 -7 31 13 27 41 8 76 -32
59z"/>
<path d="M2604 1004 c3 -9 6 -18 6 -20 0 -2 5 -4 10 -4 6 0 10 9 10 20 0 12
-7 20 -16 20 -11 0 -14 -5 -10 -16z"/>
<path d="M864 906 c-8 -22 -1 -59 13 -63 16 -6 33 29 26 55 -6 25 -31 29 -39
8z"/>
<path d="M673 808 c2 -7 14 -13 27 -13 13 0 25 6 28 13 2 8 -7 12 -28 12 -21
0 -30 -4 -27 -12z"/>
<path d="M2815 800 c8 -13 115 -13 135 0 10 7 -9 10 -63 10 -50 0 -76 -4 -72
-10z"/>
</g>
</svg>
