<?xml version="1.0" encoding="utf-8"?>
<!-- Generator: Adobe Illustrator 16.0.0, SVG Export Plug-In . SVG Version: 6.00 Build 0)  -->
<!DOCTYPE svg PUBLIC "-//W3C//DTD SVG 1.1//EN" "http://www.w3.org/Graphics/SVG/1.1/DTD/svg11.dtd">
<svg version="1.1" id="Layer_1" xmlns="http://www.w3.org/2000/svg" xmlns:xlink="http://www.w3.org/1999/xlink" x="0px" y="0px"
	 width="1000px" height="810.206px" viewBox="0 0 1000 810.206" enable-background="new 0 0 1000 810.206" xml:space="preserve">
<g>
	<path fill-rule="evenodd" clip-rule="evenodd" d="M360.398,0.271c86.225-0.548,172.469-0.065,258.709-0.233
		c29.01-0.279,58.328,1.78,86.323,9.82c60.194,16.58,112.158,60.39,138.639,116.959c26.471,55.189,27.979,121.712,3.955,178.03
		c-22.927,55.306-69.84,99.997-126.096,120.413c-31.662,11.931-65.874,15.468-99.517,15.267c-83.6-0.032-167.217,0.07-250.816-0.049
		c-36.236-0.113-73.101-5.414-106.293-20.535c-46.52-20.38-85.444-57.663-107.655-103.347
		c-24.539-49.159-29.058-107.774-12.912-160.24c12.861-41.699,38.281-79.611,72.602-106.625
		c27.713-22.529,61.223-37.464,96.146-44.441C329.015,2.812,344.632,0.455,360.398,0.271L360.398,0.271z M313.583,161.107
		c-13.84,9.304-23.975,23.692-28.61,39.657c-4.983,18.657-2.808,39.407,7.395,55.97c12.145,20.934,35.17,34.009,59.009,36.168
		l299.118-0.149c16.943-2.344,33.909-8.971,45.97-21.446c10.861-10.436,18.224-24.49,20.415-39.41
		c4.335-23.706-4.785-49.208-22.879-65.058c-15.63-14.423-37.445-20.068-58.312-20.036c-89.697,0-179.396-0.032-269.091,0.017
		C348.12,146.603,328.915,150.292,313.583,161.107L313.583,161.107z"/>
	<path fill-rule="evenodd" clip-rule="evenodd" d="M582.172,550.362c13.162-0.119,26.335-0.064,39.513-0.016
		c-0.038,85.025-0.038,170.073,0,255.099c-13.161,0.201-26.334,0.065-39.491,0.065C582.275,720.468,582.308,635.404,582.172,550.362
		L582.172,550.362z"/>
	<path fill-rule="evenodd" clip-rule="evenodd" d="M891.568,642.452c16.347-9.988,36.42-12.229,55.144-9.657
		c16.466,1.932,31.96,8.859,45.551,18.159c-6.76,8.691-13.156,17.681-19.487,26.697c-6.646-3.152-12.771-6.607-19.771-8.436
		c-13.146-4.797-35.71-6.094-45.486,5.696c-4.73,5.881-2.039,15.283,4.649,18.44c13.342,7.611,29.309,7.91,43.615,12.907
		c15.001,4.606,30.121,12.728,38.243,26.703c7.042,11.578,7.524,26.297,3.189,38.922c-5.496,15.766-18.907,27.614-34.456,33.078
		c-35.553,12.147-76.356,2.425-104.932-21.3c6.863-9.37,13.672-18.805,21.051-27.794c15.017,10.286,32.231,18.874,50.867,18.776
		c10.585,0.532,22.732-1.063,30.024-9.586c5.919-7.053,3.027-16.357-4.074-21.338c-6.18-4.335-13.559-6.83-20.964-8.188
		c-16.162-3.803-33.159-6.429-47.434-15.467c-12.109-7.623-20.665-21.496-19.949-36.052
		C866.883,667.04,877.349,651.105,891.568,642.452L891.568,642.452z"/>
	<path fill-rule="evenodd" clip-rule="evenodd" d="M229.864,655.223c31.733-26.66,81.838-26.248,114.171-0.76
		c-7.726,10.297-15.951,20.215-23.891,30.35c-12.41-7.775-27.346-11.746-41.951-9.305c-14.188,1.932-27.827,10.802-33.523,24.225
		c-9.67,20.188-4.937,47.4,13.222,61.257c19.29,14.366,48.747,11.659,65.923-4.855c9.454,8.957,18.177,18.657,27.479,27.762
		c-31.035,32.763-87.885,35.074-121.926,5.734c-19.238-16.531-29.207-42.302-28.51-67.404
		C200.41,697.177,210.626,671.591,229.864,655.223L229.864,655.223z"/>
	<path fill-rule="evenodd" clip-rule="evenodd" d="M70.839,637.352c19.854-3.076,40.986-0.233,58.447,10.031
		c19.141,10.416,33.01,29.227,38.892,50.06c6.315,23.372,3.822,49.408-8.42,70.47c-11.781,20.318-32.582,35.004-55.574,39.594
		c-20.7,3.804-42.979,1.379-61.336-9.304c-18.408-10.037-32.265-27.664-38.412-47.635c-7.625-22.89-5.284-48.807,5.981-70.106
		C22.196,657.518,45.454,641.252,70.839,637.352L70.839,637.352z M72.47,676.642c-13.126,3.435-24.59,13.173-29.489,25.917
		c-5.501,12.489-5.583,27.11-0.301,39.703c5.599,15.104,20.302,26.068,36.252,27.663c8.838,0.765,18.091,0.396,26.316-3.223
		c14.021-5.783,24.438-19.341,26.532-34.343c2.111-12.842,0.299-26.779-7.109-37.728c-6.779-10.498-18.46-16.997-30.537-19.304
		C86.89,674.782,79.528,674.797,72.47,676.642L72.47,676.642z"/>
	<path fill-rule="evenodd" clip-rule="evenodd" d="M665.093,640.091c13.157-0.151,26.318-0.119,39.459-0.032
		c-0.087,26.346-0.114,52.696,0.136,79.047c0.244,13.856,1.476,28.939,10.08,40.387c15.283,19.688,49.642,17.691,63.248-2.925
		c5.882-9.174,7.824-20.334,7.775-31.065c0.064-28.494,0.119-57.004,0.032-85.492c13.156-0.021,26.335-0.021,39.491,0.011
		c0.049,55.127,0.081,110.265-0.017,165.392c-11.464,0.299-22.943-0.017-34.407,0.185c-0.266-5.22-0.694-10.422-1.242-15.604
		c-27.035,23.958-71.859,25.981-99.864,2.643c-14.389-11.914-21.647-30.371-23.329-48.611
		C663.916,709.45,665.608,674.727,665.093,640.091L665.093,640.091z"/>
	<path fill-rule="evenodd" clip-rule="evenodd" d="M376.215,739.24c-1.131-33.062-0.583-66.141-0.684-99.219
		c13.192,0,26.383-0.13,39.575,0.104c-0.049,27.945-0.133,55.902,0.198,83.864c0.333,13.141,2.393,27.626,11.646,37.695
		c16.119,17.177,47.45,14.654,60.992-4.486c6.624-9.636,8.767-21.484,8.767-33.518l-0.331-83.572
		c12.996-0.282,25.99,0.049,38.994-0.185c0.353,55.176,0,110.346,0.168,165.521c-11.328-0.032-22.71,0.532-34.006-0.217
		c-0.917-5.034-1.047-10.167-1.514-15.234c-28.626,25.32-77.788,26.286-104.72-2.045
		C382.628,775.074,377.643,756.786,376.215,739.24L376.215,739.24z"/>
</g>
</svg>
